<svg xmlns="http://www.w3.org/2000/svg" version="1.1" xmlns:xlink="http://www.w3.org/1999/xlink" xmlns:svgjs="http://svgjs.dev/svgjs" width="1000" height="121" viewBox="0 0 1000 121"><g transform="matrix(1,0,0,1,-0.6060328441556635,-0.010951972286875389)"><svg viewBox="0 0 396 48" data-background-color="#ffffff" preserveAspectRatio="xMidYMid meet" height="121" width="1000" xmlns="http://www.w3.org/2000/svg" xmlns:xlink="http://www.w3.org/1999/xlink"><g id="tight-bounds" transform="matrix(1,0,0,1,0.2399890737693795,0.0043445840476863395)"><svg viewBox="0 0 395.52 47.9913094576352" height="47.9913094576352" width="395.52"><g><svg viewBox="0 0 395.52 47.9913094576352" height="47.9913094576352" width="395.52"><g><svg viewBox="0 0 395.52 47.9913094576352" height="47.9913094576352" width="395.52"><g id="textblocktransform"><svg viewBox="0 0 395.52 47.9913094576352" height="47.9913094576352" width="395.52" id="textblock"><g><svg viewBox="0 0 395.52 47.9913094576352" height="47.9913094576352" width="395.52"><g transform="matrix(1,0,0,1,0,0)"><svg width="395.52" viewBox="1.0700000524520874 -36.18000030517578 307.41998291015625 37.29999923706055" height="47.9913094576352" data-palette-color="#e6b17e"><g class="wordmark-text-0" data-fill-palette-color="primary" id="text-0"><path d="M1.86-35.21L24.37-35.21Q24.22-32.91 24.1-30.66 23.97-28.42 23.78-26.12L23.78-26.12 13.43-25.59 13.43-22.51 22.41-22.51 21.92-14.94 13.38-14.7 13.43-0.24 1.07 0 1.86-35.21ZM47.07-13.92L47.07-13.92 46.04-3.08 25.49-1.46Q25.63-9.99 25.82-18.41 26-26.83 26.27-35.35L26.27-35.35 38.96-35.35Q38.4-30 37.89-24.67 37.38-19.34 37.16-13.92L37.16-13.92Q38.3-13.87 39.43-13.87 40.55-13.87 41.7-13.87L41.7-13.87Q43.06-13.87 44.38-13.89 45.7-13.92 47.07-13.92ZM77.41-27.15L77.41-27.15Q77.41-25.34 77.24-23.17 77.07-21 76.68-18.68 76.29-16.36 75.67-13.98 75.04-11.6 74.12-9.4 73.19-7.2 71.96-5.29 70.72-3.37 69.12-1.94 67.52-0.51 65.55 0.31 63.57 1.12 61.15 1.12L61.15 1.12Q58.32 1.12 56.23 0.21 54.15-0.71 52.66-2.26 51.17-3.81 50.21-5.87 49.26-7.93 48.73-10.24 48.19-12.55 47.98-14.95 47.77-17.36 47.77-19.58L47.77-19.58Q47.77-23 48.12-26.4 48.46-29.81 49.09-33.2L49.09-33.2 60.52-32.76Q59.86-28.93 59.38-25.06 58.91-21.19 58.91-17.29L58.91-17.29Q58.91-16.87 58.94-16.05 58.98-15.23 59.08-14.22 59.17-13.21 59.36-12.15 59.54-11.08 59.86-10.21 60.18-9.33 60.63-8.76 61.08-8.2 61.69-8.2L61.69-8.2Q62.4-8.2 62.96-8.87 63.52-9.55 63.95-10.67 64.37-11.79 64.69-13.26 65.01-14.72 65.23-16.31 65.45-17.9 65.58-19.48 65.72-21.07 65.8-22.44 65.89-23.8 65.91-24.85 65.94-25.9 65.94-26.42L65.94-26.42Q65.94-28.32 65.88-30.21 65.82-32.1 65.69-33.98L65.69-33.98 77.12-33.98Q77.41-30.62 77.41-27.15ZM79.97-35.21L102.48-35.21Q102.34-32.91 102.21-30.66 102.09-28.42 101.9-26.12L101.9-26.12 91.55-25.59 91.55-22.51 100.53-22.51 100.04-14.94 91.5-14.7 91.55-0.24 79.19 0 79.97-35.21ZM104.34-35.21L126.85-35.21Q126.7-32.91 126.58-30.66 126.45-28.42 126.26-26.12L126.26-26.12 115.91-25.59 115.91-22.51 124.89-22.51 124.4-14.94 115.86-14.7 115.91-0.24 103.55 0 104.34-35.21ZM147.74-33.89L159.46-33.06 146.03-14.31 145.4 0.98 133.83 0.98 134.12-14.21 127.14-32.32 139.59-33.89 141.54-23.34 147.74-33.89ZM158.63-33.69L171.62-34.38 168.93-1.12 158.63-0.59 158.63-33.69ZM198.3-12.99L198.3-12.99Q198.3-9.64 197.14-7.14 195.98-4.64 193.96-2.98 191.95-1.32 189.25-0.49 186.55 0.34 183.45 0.34L183.45 0.34Q182.26 0.34 180.83 0.02 179.4-0.29 177.94-0.77 176.47-1.25 175.12-1.79 173.76-2.34 172.71-2.83L172.71-2.83 173.79-12.89Q175.86-11.65 178.39-11 180.92-10.35 183.36-10.35L183.36-10.35Q183.82-10.35 184.48-10.39 185.14-10.42 185.74-10.61 186.34-10.79 186.75-11.16 187.17-11.52 187.17-12.21L187.17-12.21Q187.17-12.67 186.87-13 186.58-13.33 186.12-13.54 185.65-13.75 185.07-13.85 184.48-13.96 183.92-14.01 183.36-14.06 182.87-14.06 182.38-14.06 182.09-14.06L182.09-14.06Q179.99-14.06 178.27-14.79 176.55-15.53 175.31-16.83 174.08-18.14 173.4-19.93 172.71-21.73 172.71-23.83L172.71-23.83Q172.71-26.71 173.87-28.99 175.03-31.27 176.97-32.87 178.91-34.47 181.43-35.33 183.94-36.18 186.63-36.18L186.63-36.18Q187.82-36.18 189.09-36.1 190.36-36.01 191.62-35.79 192.88-35.57 194.07-35.23 195.27-34.89 196.34-34.38L196.34-34.38 195.42-24.46Q193.76-25.02 191.94-25.4 190.12-25.78 188.39-25.78L188.39-25.78Q188.07-25.78 187.57-25.77 187.07-25.76 186.52-25.7 185.97-25.63 185.41-25.51 184.85-25.39 184.41-25.18 183.97-24.98 183.7-24.63 183.43-24.29 183.45-23.83L183.45-23.83Q183.48-23.29 183.86-22.96 184.24-22.63 184.83-22.45 185.43-22.27 186.15-22.19 186.87-22.12 187.58-22.11 188.29-22.09 188.9-22.11 189.51-22.12 189.9-22.07L189.9-22.07Q191.85-21.95 193.42-21.24 194.98-20.53 196.06-19.36 197.15-18.19 197.72-16.56 198.3-14.94 198.3-12.99ZM228.03-34.81L228.81 0 216.61 0.59 216.51-10.69 210.89-10.69 210.55 0 199.61 0 200.54-34.33 212.16-33.79 211.43-16.26 216.85-16.26 216.9-35.11 228.03-34.81ZM231.74-35.21L254.25-35.21Q254.1-32.91 253.98-30.66 253.86-28.42 253.66-26.12L253.66-26.12 243.31-25.59 243.07-22.51 250.34-22.51 249.81-14.94 242.48-14.7 242.24-11.13 248.29-11.13 252.59-11.13Q252.44-8.45 252.28-5.8 252.13-3.15 252-0.49L252-0.49 230.96 0 231.74-35.21ZM283.69-23.54L283.69-23.54Q283.69-21.63 283.36-20.08 283.03-18.53 282.32-17.24 281.62-15.94 280.49-14.84 279.37-13.75 277.78-12.74L277.78-12.74 283.59-2.39 272.61-0.24 268.85-10.64 265.82-10.55 265.38-0.39 254.88-0.39Q255-5.96 255.11-11.47 255.22-16.99 255.37-22.56L255.37-22.56Q255.42-25.37 255.47-28.13 255.52-30.88 255.66-33.69L255.66-33.69Q257.37-34.33 259.03-34.74 260.69-35.16 262.37-35.39 264.04-35.62 265.76-35.71 267.48-35.79 269.29-35.79L269.29-35.79Q272.07-35.79 274.67-35.02 277.27-34.25 279.27-32.71 281.27-31.18 282.48-28.88 283.69-26.59 283.69-23.54ZM272.75-22.75L272.75-22.75Q272.75-23.78 272.47-24.63 272.19-25.49 271.64-26.11 271.09-26.73 270.28-27.09 269.46-27.44 268.36-27.44L268.36-27.44Q267.87-27.44 267.41-27.38 266.94-27.32 266.5-27.2L266.5-27.2 266.11-18.12 266.7-18.12Q267.75-18.12 268.83-18.38 269.92-18.65 270.79-19.21 271.65-19.78 272.2-20.65 272.75-21.53 272.75-22.75ZM285.98-35.21L308.49-35.21Q308.35-32.91 308.22-30.66 308.1-28.42 307.91-26.12L307.91-26.12 297.56-25.59 297.31-22.51 304.59-22.51 304.05-14.94 296.73-14.7 296.48-11.13 302.54-11.13 306.83-11.13Q306.69-8.45 306.53-5.8 306.37-3.15 306.25-0.49L306.25-0.49 285.2 0 285.98-35.21Z" fill="#e6b17e" data-fill-palette-color="primary"></path></g></svg></g></svg></g></svg></g></svg></g></svg></g><defs></defs></svg><rect width="395.52" height="47.9913094576352" fill="none" stroke="none" visibility="hidden"></rect></g></svg></g></svg>